# AST/ASF file generated using VICON BodyLanguage
# -----------------------------------------------
:version 1.10
:name VICON
:units
  mass 1.0
  length 0.45
  angle deg
:documentation
   .ast/.asf automatically generated from VICON data using
   VICON BodyBuilder and BodyLanguage model FoxedUp or BRILLIANT.MOD
:root
   order TX TY TZ RX RY RZ
   axis XYZ
   position 0 0 0  
   orientation 0 0 0 
:bonedata
  begin
     id 1 
     name lhipjoint
     direction 0.711131 -0.61297 0.344326 
     length 2.29162 
     axis 0 0 0  XYZ
  end
  begin
     id 2 
     name lfemur
     direction 0.34202 -0.939693 0  
     length 6.71424  
     axis 0 0 20  XYZ
    dof rx ry rz
    limits (-160.0 20.0)
           (-70.0 70.0)
           (-60.0 70.0)
  end
  begin
     id 3 
     name ltibia
     direction 0.34202 -0.939693 0   
     length 6.7087   
     axis 0 0 20   XYZ
    dof rx
    limits (-10.0 170.0)
  end
  begin
     id 4 
     name lfoot
     direction 0.0230374 -0.0632947 0.997729   
     length 1.56743   
     axis -90 7.62852e-016 20   XYZ
    dof rx rz
    limits (-45.0 90.0)
           (-70.0 20.0)
  end
  begin
     id 5 
     name ltoes
     direction 1.53585e-011 -4.21885e-011 1   
     length 0.802914   
     axis -90 7.62852e-016 20   XYZ
    dof rx
    limits (-90.0 20.0)
  end
  begin
     id 6 
     name rhipjoint
     direction -0.733192 -0.592884 0.333043   
     length 2.36925  
     axis 0 0 0  XYZ 
  end
  begin
     id 7 
     name rfemur
     direction -0.34202 -0.939693 0   
     length 6.67027   
     axis 0 0 -20   XYZ
    dof rx ry rz
    limits (-160.0 20.0)
           (-70.0 70.0)
           (-70.0 60.0)
  end
  begin
     id 8 
     name rtibia
     direction -0.34202 -0.939693 0   
     length 6.6862   
     axis 0 0 -20   XYZ
    dof rx
    limits (-10.0 170.0)
 end
 begin
     id 9 
     name rfoot
     direction -0.0949739 -0.260939 0.960672   
     length 1.67698  
     axis -90 -7.62852e-016 -20   XYZ
    dof rx rz
    limits (-45.0 90.0)
           (-20.0 70.0)
  end
  begin
     id 10 
     name rtoes
     direction -1.5353e-011 -4.21868e-011 1   
     length 0.846298   
     axis -90 -7.62852e-016 -20   XYZ
    dof rx
    limits (-90.0 20.0)
  end
  begin
     id 11 
     name lowerback
     direction -0.0206828 0.999785 -0.00109866   
     length 2.04382   
     axis 0 0 0   XYZ
    dof rx ry rz
    limits (-20.0 45.0)
           (-30.0 30.0)
           (-30.0 30.0)
  end
  begin
     id 12 
     name upperback
     direction -0.0105003 0.999727 -0.0208904   
     length 2.04538   
     axis 0 0 0   XYZ
    dof rx ry rz
    limits (-20.0 45.0)
           (-30.0 30.0)
           (-30.0 30.0)
  end
  begin
     id 13 
     name thorax
     direction -0.000416255 0.999808 -0.0196023   
     length 2.0399   
     axis 0 0 0   XYZ
    dof rx ry rz
    limits (-20.0 45.0)
           (-30.0 30.0)
           (-30.0 30.0)
  end
  begin
     id 14 
     name lowerneck
     direction 0.0627861 0.989205 0.13241   
     length 1.46207   
     axis 0 0 0   XYZ
    dof rx ry rz
    limits (-20.0 45.0)
           (-30.0 30.0)
           (-30.0 30.0)
  end
  begin
     id 15 
     name upperneck
     direction 0.00627179 0.994526 0.104303   
     length 1.41419   
     axis 0 0 0   XYZ
    dof rx ry rz
    limits (-20.0 45.0)
           (-30.0 30.0)
           (-30.0 30.0)
  end
  begin
     id 16
     name head
     direction -0.00443838 0.999688 0.0245968  
     length 1.50718  
     axis 0 0 0   XYZ
    dof rx ry rz
    limits (-20.0 45.0)
           (-30.0 30.0)
           (-30.0 30.0)
  end
  begin
     id 17 
     name lclavicle
     direction 0.758742 0.650995 -0.0227258  
     length 2.86888  
     axis 0 0 0   XYZ
    dof ry rz
    limits (-20.0 10.0)
           (0.0 20.0)
  end
  begin
     id 18 
     name lhumerus
     direction 1 -4.48962e-011 1.06664e-027   
     length 4.65776   
     axis -180 -30 -90   XYZ
    dof rx ry rz
    limits (-60.0 90.0)
           (-90.0 90.0)
           (-90.0 90.0)
  end
  begin
     id 19
     name lradius
     direction 1 -4.48968e-011 1.40404e-026   
     length 3.55539   
     axis -180 -30 -90   XYZ
    dof rx
    limits (-10.0 170.0)
  end
  begin
     id 20
     name lwrist
     direction 1 -4.48976e-011 3.32647e-026   
     length 1.77769   
     axis -2.20186e-014 90 90   XYZ
    dof ry
    limits (-180.0 0.0)
 end
  begin
     id 21 
     name lhand
     direction 1 -4.48982e-011 6.65293e-026   
     length 0.707264   
     axis -4.24514e-014 90 90   XYZ
    dof rx rz
    limits (-90.0 90.0)
           (-45.0 45.0)
  end
  begin
     id 22 
     name lfingers
     direction 1 -4.48966e-011 1.33059e-025   
     length 0.570215   
     axis -8.49028e-014 90 90   XYZ
    dof rx
    limits (0.0 90.0)
  end
  begin
     id 23
     name lthumb
     direction 0.707107 -6.3493e-011 0.707107   
     length 0.818718   
     axis -90 45 2.85299e-015   XYZ
    dof rx rz
    limits (-45.0 45.0)
           (-45.0 45.0)
  end
  begin
     id 24 
     name rclavicle
     direction -0.870343 0.482028 -0.100759   
     length 3.2251  
     axis 0 0 0   XYZ 
    dof ry rz
    limits (-10.0 20.0)
           (-20.0 0.0)
  end
  begin
     id 25 
     name rhumerus
     direction -1 -4.48974e-011 -9.45849e-028  
     length 4.71925   
     axis -180 30 90   XYZ
    dof rx ry rz
    limits (-90.0 60.0)
           (-90.0 90.0)
           (-90.0 90.0)
  end
  begin
     id 26 
     name rradius
     direction -1 -4.48965e-011 1.17607e-026   
     length 3.5699   
     axis -180 30 90   XYZ
    dof rx
    limits (-10.0 170.0)
  end
  begin
     id 27 
     name rwrist
     direction -1 -4.48968e-011 3.32647e-026   
     length 1.78495   
     axis -2.20186e-014 -90 -90   XYZ
    dof ry
    limits (-180.0 0.0)
  end
  begin
     id 28
     name rhand
     direction -1 -4.48995e-011 6.65293e-026   
     length 0.507757   
     axis -4.24514e-014 -90 -90   XYZ
    dof rx rz
    limits (-90.0 90.0)
           (-45.0 45.0)
  end
  begin
     id 29
     name rfingers
     direction -1 -4.48864e-011 1.33059e-025   
     length 0.409367   
     axis -8.49028e-014 -90 -90   XYZ
    dof rx
    limits (0.0 90.0)
  end
  begin
     id 30
     name rthumb
     direction -0.707107 -6.3494e-011 0.707107   
     length 0.587771   
     axis -90 -45 -2.85299e-015   XYZ
    dof rx rz
    limits (-45.0 45.0)
           (-45.0 45.0)
  end
:hierarchy
  begin
    root lhipjoint rhipjoint lowerback
    lhipjoint lfemur
    lfemur ltibia
    ltibia lfoot
    lfoot ltoes
    rhipjoint rfemur
    rfemur rtibia
    rtibia rfoot
    rfoot rtoes
    lowerback upperback
    upperback thorax
    thorax lowerneck lclavicle rclavicle
    lowerneck upperneck
    upperneck head
    lclavicle lhumerus
    lhumerus lradius
    lradius lwrist
    lwrist lhand lthumb
    lhand lfingers
    rclavicle rhumerus
    rhumerus rradius
    rradius rwrist
    rwrist rhand rthumb
    rhand rfingers
  end

#!OML:ASF E:\Steps\Project 1\Capture day 1\Session 2\Subject.ASF
:FULLY-SPECIFIED
:DEGREES
30
root 7.05771 16.3207 31.2031 -154.996 -3.271 178.538
lowerback -28.6958 -2.16479 -6.36031
upperback -0.823349 -1.34812 0.40601
thorax 14.4231 -1.26267 3.33389
lowerneck -0.955352 -3.42002 -1.18331
upperneck 18.0958 -6.37944 2.30207
head 5.73021 -3.5486 0.532891
rclavicle 3.10601e-015 1.86858e-014
rhumerus -36.2854 -22.8425 -75.373
rradius 31.8124
rwrist 3.19765
rhand -7.90457 -56.4183
rfingers 7.12502
rthumb 18.0007 -85.6053
lclavicle 3.10601e-015 1.86858e-014
lhumerus -27.4244 4.93929 82.6877
lradius 27.6048
lwrist -2.632
lhand -21.5132 -14.5414
lfingers 7.12502
lthumb 4.87879 15.3824
rfemur -21.5015 6.45324 19.5525
rtibia 5.66664
rfoot -18.9209 -8.38338
rtoes -32.7557
lfemur -22.6145 -8.65605 -19.6312
ltibia 9.06859
lfoot -9.80326 4.4852
ltoes -30.778
31
root 7.05745 16.3236 31.1923 -155.288 -3.36742 178.359
lowerback -28.4814 -2.29528 -6.55967
upperback -0.673359 -1.44018 0.437222
thorax 14.5125 -1.31236 3.44709
lowerneck -1.1134 -3.40241 -1.31222
upperneck 18.0326 -6.32026 2.31783
head 5.74026 -3.51645 0.559627
rclavicle 1.06598e-014 -1.98785e-016
rhumerus -36.0908 -22.6071 -75.4641
rradius 31.9409
rwrist 2.75864
rhand -8.31226 -56.7697
rfingers 7.12502
rthumb 17.6084 -85.9923
lclavicle 1.06598e-014 -1.98785e-016
lhumerus -27.4955 5.41792 82.6572
lradius 27.2649
lwrist -2.71633
lhand -21.0191 -14.1864
lfingers 7.12502
lthumb 5.3559 15.726
rfemur -21.1095 6.56033 19.3953
rtibia 5.75662
rfoot -19.1632 -8.65768
rtoes -32.4568
lfemur -22.1937 -8.66531 -19.9024
ltibia 9.00379
lfoot -9.77589 4.34585
ltoes -31.4293
32
root 7.05496 16.3181 31.1888 -155.41 -3.39566 178.41
lowerback -28.3473 -2.26703 -6.43589
upperback -0.636226 -1.43898 0.413299
thorax 14.491 -1.29915 3.35818
lowerneck -1.12257 -3.37052 -1.33994
upperneck 17.976 -6.28285 2.43148
head 5.72759 -3.49025 0.602443
rclavicle -1.28216e-014 4.37326e-015
rhumerus -36.0778 -22.5813 -75.5639
rradius 31.9453
rwrist 2.7645
rhand -7.9678 -56.658
rfingers 7.12502
rthumb 17.9398 -85.8506
lclavicle -1.28216e-014 4.37326e-015
lhumerus -27.6011 5.66362 82.5332
lradius 26.8803
lwrist -2.77374
lhand -20.9337 -14.1226
lfingers 7.12502
lthumb 5.43832 15.7877
rfemur -20.8123 6.33725 19.5069
rtibia 5.44
rfoot -18.9871 -8.44448
rtoes -32.3232
lfemur -22.0542 -8.60139 -19.8971
ltibia 9.00756
lfoot -9.70615 4.32496
ltoes -32.6869
33
root 7.05343 16.2983 31.1968 -154.967 -3.14712 179.082
lowerback -28.6954 -1.93271 -5.68477
upperback -0.825067 -1.27222 0.46703
thorax 14.4094 -1.18441 3.06368
lowerneck -0.923653 -3.35753 -1.1667
upperneck 17.7748 -6.25824 2.43231
head 5.62513 -3.46834 0.584128
rclavicle -7.95139e-016 3.97569e-016
rhumerus -36.2424 -22.8811 -75.5212
rradius 31.8031
rwrist 3.27193
rhand -7.15698 -56.1989
rfingers 7.12502
rthumb 18.7198 -85.3182
lclavicle -7.95139e-016 3.97569e-016
lhumerus -27.7885 5.67391 82.381
lradius 26.5083
lwrist -2.72517
lhand -20.9888 -13.9323
lfingers 7.12502
lthumb 5.38521 15.9793
rfemur -21.775 6.50611 20.2118
rtibia 6.10351
rfoot -19.0972 -8.12327
rtoes -32.652
lfemur -22.6647 -8.31111 -19.1083
ltibia 9.09848
lfoot -9.69628 4.67815
ltoes -33.3958
34
root 7.05664 16.2954 31.1924 -155.091 -3.31723 179.448
lowerback -28.4994 -1.88505 -5.33825
upperback -0.880532 -1.35171 0.581195
thorax 14.262 -1.19593 2.97314
lowerneck -0.915431 -3.29145 -1.16151
upperneck 17.8684 -6.19101 2.45902
head 5.65229 -3.43869 0.593612
rclavicle 3.23025e-015 -1.53064e-014
rhumerus -36.3948 -22.6993 -75.5545
rradius 31.8364
rwrist 3.19894
rhand -7.33973 -56.2915
rfingers 7.12502
rthumb 18.5441 -85.4276
lclavicle 3.23025e-015 -1.53064e-014
lhumerus -28.0404 5.90216 82.2663
lradius 26.0946
lwrist -2.74693
lhand -20.8758 -13.9314
lfingers 7.12502
lthumb 5.49428 15.9774
rfemur -21.4731 6.322 20.7482
rtibia 5.80249
rfoot -19.0108 -7.91469
rtoes -32.6523
lfemur -22.5461 -8.30628 -18.6222
ltibia 9.08772
lfoot -9.73895 4.73555
ltoes -33.1994
35
root 7.05653 16.3098 31.1772 -155.82 -3.90606 179.224
lowerback -27.7653 -2.16347 -5.47721
upperback -0.72225 -1.66311 0.575917
thorax 14.134 -1.32592 2.9434
lowerneck -0.893344 -3.18629 -1.21955
upperneck 17.9088 -6.06855 2.5506
head 5.6629 -3.38063 0.637962
rclavicle 1.17283e-014 -2.18663e-015
rhumerus -36.4155 -22.0557 -75.8773
rradius 32.102
rwrist 2.42102
rhand -8.53566 -57.1443
rfingers 7.12502
rthumb 17.3934 -86.3861
lclavicle 1.17283e-014 -2.18663e-015
lhumerus -28.258 6.27582 82.0712
lradius 25.6695
lwrist -2.92892
lhand -20.8464 -14.0531
lfingers 7.12502
lthumb 5.52263 15.8549
rfemur -20.3118 6.45269 20.6381
rtibia 5.50541
rfoot -19.1583 -8.66534
rtoes -32.2457
lfemur -21.6737 -8.63031 -18.8622
ltibia 9.02578
lfoot -9.79564 4.3314
ltoes -33.0081
36
root 7.05413 16.3163 31.1691 -155.928 -4.01719 178.895
lowerback -27.5701 -2.33286 -5.8694
upperback -0.736351 -1.77089 0.581112
thorax 14.0434 -1.39672 3.12682
lowerneck -0.777082 -3.16108 -1.22464
upperneck 17.882 -6.0186 2.43514
head 5.63024 -3.36764 0.608752
rclavicle -6.90777e-015 -5.76476e-015
rhumerus -36.4653 -21.8142 -75.8579
rradius 32.1614
rwrist 2.14396
rhand -8.95907 -57.4579
rfingers 7.12502
rthumb 16.9858 -86.7352
lclavicle -6.90777e-015 -5.76476e-015
lhumerus -28.5547 6.4401 82.0423
lradius 25.3434
lwrist -3.0579
lhand -20.8954 -14.0776
lfingers 7.12502
lthumb 5.47535 15.8317
rfemur -20.1186 6.58446 20.2416
rtibia 5.53376
rfoot -19.2693 -9.01352
rtoes -31.9036
lfemur -21.5139 -8.79543 -19.2659
ltibia 9.06976
lfoot -9.84299 4.18258
ltoes -32.8536
37
root 7.05101 16.3224 31.1624 -155.691 -3.85059 178.452
lowerback -27.7654 -2.39414 -6.27694
upperback -0.792491 -1.70634 0.41805
thorax 14.0626 -1.39565 3.18909
lowerneck -0.959168 -3.0996 -0.941234
upperneck 17.913 -5.91693 2.30365
head 5.65727 -3.30213 0.5221
rclavicle -2.68359e-015 1.80894e-014
rhumerus -36.5504 -22.0787 -75.8079
rradius 32.0866
rwrist 2.26437
rhand -8.7848 -57.1081
rfingers 7.12502
rthumb 17.1536 -86.3709
lclavicle -2.68359e-015 1.80894e-014
lhumerus -28.8137 6.32327 81.9185
lradius 25.0547
lwrist -3.06658
lhand -20.733 -14.4304
lfingers 7.12502
lthumb 5.63218 15.4748
rfemur -20.3357 6.62065 19.6306
rtibia 5.5101
rfoot -19.2581 -9.07969
rtoes -31.7381
lfemur -21.7229 -8.85718 -19.8144
ltibia 9.13778
lfoot -9.81882 4.18557
ltoes -33.4874
38
root 7.0501 16.3204 31.1646 -155.246 -3.58446 178.337
lowerback -28.1405 -2.32201 -6.38262
upperback -0.90404 -1.57299 0.326355
thorax 14.0916 -1.35035 3.18601
lowerneck -1.7266 -2.7649 -0.55995
upperneck 18.235 -5.47485 2.33928
head 5.87277 -3.04104 0.472957
rclavicle -2.23633e-015 5.96354e-015
rhumerus -36.6748 -22.4623 -75.6742
rradius 31.9626
rwrist 2.61301
rhand -8.27052 -56.57
rfingers 7.12502
rthumb 17.6485 -85.789
lclavicle -2.23633e-015 5.96354e-015
lhumerus -28.9753 6.40774 81.7595
lradius 24.6555
lwrist -3.25616
lhand -20.5571 -14.6613
lfingers 7.12502
lthumb 5.80199 15.2393
rfemur -20.9819 6.64196 19.3974
rtibia 5.73406
rfoot -19.2757 -8.92722
rtoes -31.9799
lfemur -22.256 -8.63026 -19.9863
ltibia 9.27615
lfoot -9.80054 4.15457
ltoes -32.5866
39
root 7.04921 16.3003 31.1783 -154.312 -2.98006 178.659
lowerback -28.9929 -2.02604 -6.1168
upperback -1.15542 -1.28935 0.337299
thorax 14.1611 -1.22986 3.13889
lowerneck -0.838166 -3.26965 -0.89473
upperneck 17.8622 -6.14838 2.24846
head 5.62233 -3.41823 0.488637
rclavicle 3.47873e-016 -7.15625e-015
rhumerus -36.8619 -22.9021 -75.353
rradius 31.6815
rwrist 3.4152
rhand -7.35379 -55.4069
rfingers 7.12502
rthumb 18.5305 -84.5442
lclavicle 3.47873e-016 -7.15625e-015
lhumerus -29.1167 6.50771 81.656
lradius 24.232
lwrist -3.4321
lhand -20.7065 -14.3759
lfingers 7.12502
lthumb 5.65776 15.5285
rfemur -22.6122 6.59031 19.5882
rtibia 6.55095
rfoot -19.4194 -8.21871
rtoes -32.402
lfemur -23.4267 -8.1933 -19.6501
ltibia 9.48638
lfoot -9.89324 4.44897
ltoes -32.1144
40
root 7.04652 16.3165 31.1504 -155.257 -3.49572 178.419
lowerback -28.2561 -2.23758 -6.3003
upperback -0.870029 -1.47713 0.32066
thorax 14.1739 -1.30397 3.16921
lowerneck -1.90506 -2.73126 -0.707412
upperneck 18.4317 -5.49378 2.63725
head 5.97779 -3.04119 0.582421
rclavicle -2.68359e-015 -1.23246e-014
rhumerus -36.8459 -22.393 -75.644
rradius 31.9117
rwrist 2.51742
rhand -8.42525 -57.7748
rfingers 7.12502
rthumb 17.4996 -87.0072
lclavicle -2.68359e-015 -1.23246e-014
lhumerus -29.2697 6.62347 81.5901
lradius 23.9013
lwrist -3.64671
lhand -21.0254 -14.0257
lfingers 7.12502
lthumb 5.34978 15.8868
rfemur -21.019 6.63681 19.4773
rtibia 5.91598
rfoot -19.3458 -8.83063
rtoes -32.659
lfemur -22.1779 -8.53834 -19.951
ltibia 9.27523
lfoot -9.91994 4.17848
ltoes -32.4004
41
root 7.0443 16.3181 31.1332 -155.591 -3.63376 178.384
lowerback -28.0889 -2.27843 -6.29447
upperback -0.714017 -1.51158 0.325652
thorax 14.2816 -1.31376 3.16391
lowerneck -1.03899 -3.30441 -0.863014
upperneck 17.9208 -6.17964 2.19
head 5.67276 -3.428 0.457811
rclavicle 4.82053e-015 -7.7526e-015
rhumerus -36.8009 -22.0381 -75.8198
rradius 32.0443
rwrist 1.99268
rhand -9.11378 -58.7807
rfingers 7.12502
rthumb 16.8369 -88.0707
lclavicle 4.82053e-015 -7.7526e-015
lhumerus -29.364 6.8458 81.5006
lradius 23.5446
lwrist -3.98678
lhand -21.2957 -13.6752
lfingers 7.12502
lthumb 5.08879 16.2437
rfemur -20.4544 6.55695 19.503
rtibia 5.73418
rfoot -19.3166 -8.91108
rtoes -33.0501
lfemur -21.6796 -8.71581 -20.0017
ltibia 9.1443
lfoot -9.93407 4.15222
ltoes -32.2925
42
root 7.04426 16.317 31.1277 -155.562 -3.66463 178.485
lowerback -28.1753 -2.22774 -6.1668
upperback -0.664682 -1.47431 0.332135
thorax 14.3745 -1.28991 3.11416
lowerneck -2.17118 -2.74617 -0.749651
upperneck 18.2843 -5.47818 2.75178
head 5.98091 -3.00996 0.623459
rclavicle -4.82053e-015 -2.127e-014
rhumerus -36.8103 -22.1138 -75.7823
rradius 31.9403
rwrist 2.20754
rhand -8.61536 -58.7135
rfingers 7.12502
rthumb 17.3167 -87.9621
lclavicle -4.82053e-015 -2.127e-014
lhumerus -29.3638 6.99916 81.374
lradius 23.0656
lwrist -4.316
lhand -21.2926 -13.413
lfingers 7.12502
lthumb 5.09187 16.5058
rfemur -20.5099 6.46607 19.65
rtibia 5.84097
rfoot -19.4201 -8.8238
rtoes -33.0838
lfemur -21.6667 -8.74104 -19.8576
ltibia 9.07114
lfoot -9.94583 4.15381
ltoes -32.1677
43
root 7.04552 16.3198 31.1258 -155.555 -3.67233 178.491
lowerback -28.1229 -2.21 -6.17432
upperback -0.672973 -1.45124 0.326953
thorax 14.3379 -1.27873 3.12291
lowerneck -2.24048 -2.77984 -0.929837
upperneck 18.1146 -5.53367 3.08028
head 5.954 -3.01785 0.754035
rclavicle 1.65985e-014 5.76476e-015
rhumerus -36.8908 -22.4225 -75.5244
rradius 31.5793
rwrist 2.80503
rhand -7.74798 -56.7884
rfingers 7.12502
rthumb 18.1513 -85.9615
lclavicle 1.65985e-014 5.76476e-015
lhumerus -29.4108 7.31173 81.1837
lradius 22.5029
lwrist -4.72678
lhand -20.7656 -14.157
lfingers 7.12502
lthumb 5.60067 15.749
rfemur -20.5477 6.4618 19.6608
rtibia 5.90636
rfoot -19.5099 -8.80986
rtoes -32.914
lfemur -21.7584 -8.61417 -19.8525
ltibia 9.21659
lfoot -9.98026 4.07736
ltoes -32.4262
